<?xml version="1.0" standalone="no"?>
<!DOCTYPE svg PUBLIC "-//W3C//DTD SVG 20010904//EN"
 "http://www.w3.org/TR/2001/REC-SVG-20010904/DTD/svg10.dtd">
<svg version="1.0" xmlns="http://www.w3.org/2000/svg"
 width="690.000000pt" height="690.000000pt" viewBox="0 0 690.000000 690.000000"
 preserveAspectRatio="xMidYMid meet">
<metadata>
Created by potrace 1.14, written by Peter Selinger 2001-2017
</metadata>
<g transform="translate(0.000000,690.000000) scale(0.100000,-0.100000)"
fill="#000000" stroke="none">
<path d="M3527 6875 c-10 -14 -26 -25 -36 -25 -10 0 -38 -7 -62 -16 -24 -8
-52 -17 -63 -19 -10 -3 -55 -16 -100 -31 -44 -15 -87 -27 -93 -27 -7 0 -13 -4
-13 -9 0 -4 -3 -7 -7 -7 -5 1 -10 0 -13 -1 -3 -1 -12 -3 -20 -5 -22 -4 -272
-85 -295 -95 -120 -54 -185 -68 -185 -40 0 14 -70 41 -90 35 -26 -8 -70 -62
-70 -86 0 -11 -5 -29 -11 -40 -10 -20 -11 -20 -31 -2 -15 13 -22 15 -25 5 -3
-6 -9 -10 -14 -6 -5 3 -9 0 -9 -5 0 -14 17 -14 25 -1 5 8 11 7 21 -1 21 -17
18 -23 -28 -49 -54 -29 -134 -76 -268 -157 -58 -35 -112 -68 -120 -73 -108
-64 -276 -166 -280 -170 -3 -4 -12 -9 -20 -13 -8 -4 -32 -17 -52 -29 -20 -13
-126 -77 -235 -143 -109 -66 -244 -150 -300 -187 -55 -37 -114 -70 -130 -73
l-28 -6 28 25 c15 14 27 27 27 29 0 2 39 45 88 95 48 50 121 128 164 174 42
46 108 117 147 158 114 119 133 141 127 148 -6 6 -41 -28 -236 -235 -221 -234
-295 -316 -298 -329 -2 -8 -7 -12 -12 -9 -5 3 -11 -3 -14 -13 -10 -31 -62 -73
-96 -77 -18 -2 -38 -10 -46 -16 -16 -13 -19 -55 -4 -64 6 -3 1 -15 -11 -28
-12 -12 -39 -49 -62 -82 -22 -33 -44 -61 -49 -63 -4 -2 -8 -8 -8 -14 0 -6 -14
-27 -30 -48 -17 -21 -30 -43 -30 -49 0 -6 -4 -11 -9 -11 -5 0 -11 -8 -15 -17
-3 -10 -39 -65 -80 -123 -93 -131 -188 -269 -202 -295 -28 -53 -42 -66 -76
-75 -44 -12 -57 -40 -34 -75 9 -14 21 -25 26 -25 6 0 8 -11 4 -26 -4 -14 -8
-42 -9 -63 -2 -20 -4 -36 -5 -36 0 0 -3 -22 -5 -49 -2 -26 -6 -51 -9 -54 -3
-3 0 -12 7 -20 10 -13 9 -14 -2 -7 -11 6 -13 2 -9 -18 3 -15 0 -28 -6 -31 -7
-3 -6 -5 2 -5 8 -1 10 -6 5 -13 -4 -7 -8 -24 -9 -38 0 -14 -4 -47 -8 -74 -4
-28 -9 -77 -12 -109 -3 -33 -7 -64 -10 -68 -3 -5 1 -9 8 -9 8 0 14 11 14 28 1
42 16 172 30 262 4 25 8 59 10 75 1 17 3 30 4 30 1 0 3 11 5 25 2 14 6 34 8
45 3 11 8 50 11 87 4 37 13 86 21 109 8 23 12 45 9 50 -3 5 -1 9 4 9 5 0 15
13 21 28 6 15 23 41 36 56 14 16 25 33 25 39 0 5 13 26 28 46 16 20 53 71 83
115 30 43 93 135 141 205 48 69 101 150 118 179 18 28 38 59 46 67 9 8 13 15
9 15 -4 0 1 7 10 17 13 13 18 14 25 3 6 -9 9 -7 14 8 16 49 49 30 334 -186 12
-9 131 -98 265 -196 l242 -180 0 -59 c0 -56 -2 -60 -40 -93 -22 -19 -45 -37
-50 -42 -6 -4 -48 -39 -95 -78 -47 -38 -166 -137 -265 -220 -99 -82 -188 -156
-199 -164 -10 -8 -23 -20 -30 -25 -6 -6 -49 -41 -96 -80 -47 -38 -90 -74 -96
-80 -6 -5 -28 -23 -49 -40 -21 -16 -43 -35 -49 -40 -10 -10 -127 -106 -240
-198 -21 -18 -57 -48 -80 -68 -33 -31 -44 -35 -64 -28 -34 13 -45 11 -38 -6 3
-8 1 -15 -4 -15 -15 0 -23 -60 -10 -75 7 -8 9 -26 6 -40 -4 -15 -2 -25 4 -25
6 0 8 5 5 10 -3 6 -2 10 3 10 6 0 9 8 8 18 -1 11 5 16 16 14 10 -2 18 2 18 8
0 7 26 -13 58 -43 31 -30 73 -68 92 -83 19 -16 44 -38 56 -49 21 -21 161 -146
198 -178 12 -10 61 -55 111 -100 127 -116 157 -144 181 -164 24 -21 154 -136
194 -173 26 -23 126 -114 245 -220 141 -127 153 -141 149 -167 -5 -29 11 -53
35 -53 18 0 35 -33 71 -140 12 -36 26 -74 32 -85 5 -12 10 -27 12 -35 2 -8 6
-24 10 -35 5 -11 12 -33 18 -50 5 -16 14 -39 18 -50 4 -11 15 -42 23 -70 9
-27 41 -122 72 -210 31 -88 61 -176 67 -195 6 -19 15 -41 20 -47 6 -7 7 -13 4
-13 -4 0 -2 -9 4 -21 7 -11 14 -33 16 -47 3 -15 10 -30 16 -33 6 -4 8 -11 4
-17 -3 -6 -1 -14 5 -17 5 -4 8 -13 5 -20 -3 -8 0 -15 7 -18 7 -2 12 -12 13
-23 0 -10 8 -36 17 -58 9 -21 17 -45 17 -52 0 -8 4 -22 10 -32 13 -23 38 -95
55 -157 4 -16 10 -34 14 -40 3 -5 6 -12 7 -15 0 -3 3 -12 7 -20 3 -8 11 -33
18 -55 14 -46 39 -99 44 -93 4 4 -15 65 -26 83 -4 6 -12 34 -19 62 -6 29 -16
53 -21 53 -6 0 -9 6 -8 12 3 23 -13 78 -23 78 -5 0 -6 5 -3 10 4 6 1 17 -5 25
-7 8 -9 15 -6 15 4 0 1 10 -6 23 -6 12 -13 27 -14 32 -3 19 -47 150 -53 160
-3 6 -6 12 -7 15 -1 6 -7 23 -23 70 -7 19 -19 55 -27 80 -8 25 -17 52 -21 60
-3 8 -7 20 -9 25 -4 16 -90 262 -124 355 -16 47 -30 85 -29 85 1 0 -13 41 -21
60 -8 18 -20 55 -26 80 -4 17 -64 177 -81 216 -18 43 -11 75 17 75 11 0 20 -4
20 -9 0 -4 4 -6 9 -3 5 4 11 2 13 -2 1 -5 30 -19 63 -30 154 -54 197 -70 202
-76 4 -3 12 -6 20 -6 7 0 32 -8 56 -18 23 -11 69 -29 102 -41 33 -13 69 -27
80 -31 35 -15 139 -52 178 -63 20 -6 37 -15 37 -19 0 -4 5 -8 12 -8 13 0 210
-72 265 -96 17 -8 38 -14 46 -14 9 0 18 -4 22 -9 3 -5 20 -13 37 -17 18 -3 39
-10 48 -15 8 -5 53 -23 100 -40 47 -17 112 -42 145 -55 33 -14 70 -26 82 -28
11 -3 35 -12 52 -20 17 -9 32 -16 33 -15 2 0 17 -5 33 -11 17 -6 62 -22 100
-36 39 -14 84 -32 100 -39 58 -26 150 -59 158 -57 4 1 7 -2 7 -6 0 -5 7 -9 15
-10 8 -1 22 -3 30 -4 8 -1 15 -5 15 -10 0 -4 5 -8 11 -8 8 0 8 5 -1 15 -7 8
-21 15 -31 15 -10 0 -21 5 -24 11 -4 6 -13 8 -21 5 -8 -3 -14 -1 -14 4 0 4
-13 11 -30 15 -16 4 -32 11 -35 16 -4 5 -14 9 -23 9 -9 0 -29 6 -44 14 -14 8
-43 19 -65 26 -21 7 -51 18 -68 25 -42 19 -252 96 -267 99 -7 1 -29 10 -48 18
-60 28 -152 61 -166 61 -8 0 -14 4 -14 9 0 4 -3 7 -7 6 -5 -1 -21 4 -36 10
-16 7 -34 12 -40 12 -7 0 -21 7 -31 15 -10 8 -23 12 -27 9 -5 -3 -9 0 -9 7 0
7 -3 10 -6 6 -4 -3 -19 0 -35 9 -16 8 -29 12 -29 9 0 -3 -14 2 -31 11 -17 8
-40 17 -50 19 -11 2 -34 11 -51 20 -17 8 -34 15 -38 15 -4 0 -25 8 -46 17 -22
9 -46 18 -54 20 -31 7 -35 9 -55 20 -17 9 -91 36 -105 38 -3 0 -15 6 -27 13
-13 7 -23 10 -23 6 0 -3 -6 -2 -12 3 -12 8 -101 45 -120 49 -5 1 -10 3 -13 4
-3 1 -8 3 -12 4 -5 1 -17 7 -28 12 -23 13 -76 28 -87 26 -5 -1 -8 3 -8 9 0 5
-5 7 -10 4 -6 -3 -10 -2 -10 3 0 5 -6 9 -12 9 -22 1 -43 8 -49 16 -3 4 -17 9
-30 10 -13 1 -50 15 -83 30 -32 15 -62 27 -66 27 -8 0 -23 31 -18 35 2 1 26
15 53 31 55 31 252 158 413 265 56 38 105 69 108 69 4 0 23 13 44 30 21 16 40
30 44 30 3 0 81 50 173 111 93 61 195 129 228 150 33 21 65 42 71 46 5 5 17
13 26 18 8 6 28 19 44 30 16 10 88 57 159 104 72 46 132 88 133 93 2 4 10 8
17 8 8 0 20 9 28 20 14 20 15 20 52 -10 44 -35 71 -44 119 -38 19 2 34 1 34
-2 -2 -16 16 -91 23 -96 5 -3 9 -16 9 -29 0 -13 4 -26 10 -30 5 -3 7 -12 4
-19 -3 -8 0 -17 5 -21 6 -3 9 -11 6 -16 -4 -5 -3 -15 2 -21 4 -7 9 -22 11 -33
1 -11 11 -49 22 -85 11 -36 21 -75 23 -87 2 -12 6 -26 10 -29 4 -4 7 -19 7
-34 0 -14 4 -30 9 -35 5 -6 12 -23 15 -40 2 -16 9 -45 15 -62 5 -18 7 -33 4
-33 -3 0 0 -7 7 -15 7 -8 10 -15 7 -15 -3 0 3 -27 13 -59 10 -33 15 -62 12
-65 -3 -3 0 -6 7 -6 7 0 11 -7 8 -15 -4 -8 -2 -17 4 -21 6 -3 8 -12 5 -19 -2
-7 -2 -16 2 -19 3 -4 7 -14 8 -24 2 -9 7 -33 13 -52 5 -19 20 -69 32 -110 12
-41 22 -84 23 -95 0 -11 4 -22 8 -25 3 -3 9 -18 12 -35 3 -16 14 -63 25 -103
10 -40 20 -75 20 -77 1 -3 1 -6 2 -7 0 -2 2 -14 5 -28 2 -14 8 -34 13 -45 5
-11 15 -47 22 -80 7 -33 15 -64 18 -70 6 -11 12 -33 13 -52 1 -7 5 -13 10 -13
9 0 6 24 -11 78 -5 17 -7 32 -4 32 3 0 0 6 -6 13 -6 8 -8 17 -4 20 3 4 1 7 -5
7 -6 0 -9 6 -6 13 2 7 -2 32 -10 55 -8 23 -13 42 -10 42 2 0 0 8 -5 18 -5 9
-12 33 -15 52 -9 49 -11 53 -19 68 -5 6 -6 12 -3 12 3 0 1 11 -4 26 -6 14 -12
37 -15 52 -2 15 -14 59 -25 97 -12 39 -23 78 -25 88 -2 10 -7 27 -10 37 -3 10
-8 28 -10 39 -3 12 -7 30 -9 40 -8 35 -47 176 -53 191 -8 19 -11 31 -28 105
-5 25 -16 63 -50 185 -15 52 -28 104 -30 114 -5 21 -24 83 -32 106 -4 8 -5 18
-5 22 1 4 -4 27 -12 50 -8 24 -17 59 -21 78 -4 19 -14 44 -21 56 -13 19 -11
23 25 52 22 18 49 53 62 82 18 39 25 47 36 39 10 -9 13 -8 13 5 0 9 -6 16 -14
16 -7 0 -21 20 -30 45 -10 24 -33 58 -52 74 -32 29 -45 61 -24 61 6 0 10 5 10
10 0 6 21 63 46 128 26 64 59 153 75 197 15 44 40 112 54 150 15 39 37 99 49
135 13 36 42 117 65 180 24 63 55 151 71 195 15 44 40 112 55 150 34 89 49
134 55 160 1 6 5 15 10 20 4 6 13 26 18 45 21 71 105 298 121 329 7 12 15 21
19 21 7 -1 195 -280 488 -728 87 -133 291 -441 452 -685 162 -243 297 -449
302 -457 5 -8 11 -12 14 -9 8 8 -50 99 -409 642 -229 348 -404 613 -523 797
-52 80 -104 159 -115 175 -12 17 -44 64 -71 105 -28 41 -54 77 -58 78 -4 2 -8
9 -8 16 0 6 -9 18 -20 26 -11 8 -20 20 -20 26 0 7 -6 14 -12 17 -10 3 -10 7 1
20 7 9 18 14 25 10 10 -7 42 -11 116 -16 14 -1 28 -6 32 -12 5 -6 8 -5 8 3 0
8 5 10 13 5 6 -4 26 -8 42 -8 17 0 36 -4 43 -8 8 -5 12 -2 12 8 0 9 -4 14 -9
11 -5 -4 -12 0 -14 6 -4 10 -6 10 -6 0 -1 -9 -7 -10 -18 -4 -10 4 -29 8 -43 7
-14 0 -28 4 -32 10 -5 6 -8 5 -8 -3 0 -8 -5 -10 -12 -6 -6 4 -34 9 -62 10 -38
2 -54 7 -68 26 -9 12 -18 28 -18 33 0 9 84 212 141 342 11 24 19 46 19 50 0 5
11 30 24 58 14 27 22 53 20 57 -3 5 0 8 5 8 6 0 11 6 11 13 0 7 30 85 66 173
36 87 66 164 68 169 5 22 35 71 54 88 36 33 76 25 124 -24 59 -60 168 -159
302 -274 33 -27 71 -61 85 -74 14 -13 55 -49 90 -80 35 -31 69 -61 75 -67 13
-12 86 -76 176 -154 36 -30 93 -82 128 -115 35 -33 71 -64 79 -68 8 -5 38 -31
67 -58 72 -67 104 -95 153 -132 23 -18 45 -39 48 -47 3 -8 29 -34 57 -57 38
-31 54 -39 60 -30 11 18 10 -6 -2 -38 -9 -23 -6 -29 20 -52 28 -23 43 -52 20
-38 -6 4 -10 3 -9 -2 1 -4 0 -11 -1 -15 -1 -5 -3 -11 -4 -15 -1 -5 -11 -33
-23 -63 -11 -30 -44 -134 -73 -230 -29 -96 -56 -184 -61 -195 -5 -11 -10 -29
-12 -40 -1 -11 -5 -24 -8 -30 -4 -5 -10 -23 -14 -40 -12 -44 -12 -45 -15 -50
-1 -3 -4 -9 -5 -15 -1 -5 -3 -11 -5 -12 -1 -2 -3 -11 -6 -20 -7 -29 -11 -42
-17 -58 -3 -8 -14 -42 -23 -75 -9 -33 -19 -64 -22 -70 -4 -5 -7 -14 -8 -20 -1
-5 -8 -30 -15 -55 -7 -25 -13 -48 -15 -52 -1 -5 -3 -10 -4 -13 -1 -3 -3 -8 -5
-12 -1 -5 -4 -15 -8 -23 -3 -8 -19 -62 -37 -120 -17 -58 -34 -114 -38 -125 -3
-11 -5 -23 -4 -27 1 -5 -3 -8 -8 -8 -5 0 -9 -3 -8 -7 1 -5 -11 -48 -26 -98
-16 -49 -29 -95 -30 -102 -3 -18 -7 -20 -56 -26 -25 -3 -53 -7 -62 -9 -26 -6
-67 -48 -89 -90 -11 -21 -26 -38 -35 -38 -8 0 -12 -5 -9 -10 4 -6 11 -8 16 -5
5 4 9 0 10 -7 2 -34 11 -64 30 -98 30 -53 86 -75 175 -71 30 1 108 81 120 122
7 24 15 33 27 31 9 -2 17 2 17 8 0 5 -5 9 -12 7 -6 -1 -21 16 -32 39 -28 55
-46 77 -78 98 -26 17 -27 20 -13 39 8 12 15 31 15 42 0 12 5 26 11 32 6 6 12
25 14 42 1 17 7 36 13 43 6 7 10 15 11 18 0 3 2 12 5 20 14 40 46 146 47 155
1 6 6 21 11 35 10 26 20 58 107 340 28 91 61 194 73 230 12 36 22 72 23 80 1
8 7 26 12 40 6 14 20 61 33 105 12 44 25 89 30 100 25 68 39 118 35 125 -3 5
-1 11 5 15 5 3 10 17 10 31 0 13 5 24 12 24 6 0 9 3 6 6 -10 9 30 109 42 106
8 -2 8 3 0 18 -9 16 -8 20 5 20 8 0 21 -11 27 -25 6 -14 16 -25 21 -25 5 0 18
-10 28 -22 11 -11 22 -18 26 -14 4 4 -5 17 -20 30 -15 13 -27 28 -27 34 0 6
-5 12 -10 14 -6 2 -12 18 -15 37 -5 39 -40 81 -67 81 -12 0 -16 4 -12 11 3 6
0 15 -7 20 -8 4 -14 14 -14 20 0 7 -7 14 -15 16 -13 4 -13 3 0 -6 8 -6 11 -11
6 -11 -5 0 -1 -9 8 -19 12 -14 14 -21 6 -26 -7 -4 -31 11 -57 36 -117 114
-224 212 -298 274 -33 28 -76 66 -96 85 -33 32 -104 95 -169 150 -14 11 -55
47 -91 80 -36 33 -81 72 -99 87 -18 15 -52 47 -77 70 -24 23 -74 66 -111 97
-71 58 -77 64 -192 166 -146 129 -156 142 -159 185 -2 44 -38 100 -71 110 -24
8 -90 -30 -90 -51 0 -17 -58 -5 -101 22 -5 3 -9 -2 -9 -10 0 -9 3 -15 8 -14
12 3 82 -23 82 -31 0 -8 26 -43 55 -72 13 -14 14 -18 1 -28 -8 -6 -24 -37 -37
-69 -12 -31 -25 -61 -29 -67 -4 -5 -21 -46 -38 -90 -17 -44 -47 -118 -67 -165
-20 -47 -38 -93 -40 -104 -2 -10 -8 -23 -13 -30 -5 -6 -14 -24 -20 -41 -6 -16
-17 -43 -23 -60 -7 -16 -13 -34 -14 -40 -2 -5 -11 -30 -22 -55 -11 -25 -33
-74 -48 -110 -64 -148 -66 -148 -225 -41 -169 114 -159 108 -209 139 -24 15
-49 33 -56 40 -8 6 -18 12 -23 12 -6 0 -12 3 -14 8 -5 11 -203 142 -215 142
-6 0 -13 7 -17 15 -3 8 -12 15 -21 15 -8 0 -15 5 -15 10 0 6 -5 10 -11 10 -6
0 -28 14 -49 30 -21 17 -40 30 -43 30 -6 0 -130 82 -137 91 -3 3 -10 8 -16 10
-5 2 -63 40 -127 84 -65 44 -125 85 -135 90 -9 6 -59 39 -111 73 -51 34 -97
59 -103 56 -5 -3 5 -13 22 -22 17 -10 97 -63 178 -118 81 -56 199 -136 262
-178 63 -42 122 -81 130 -86 38 -27 383 -256 398 -265 9 -5 21 -14 26 -18 6
-4 90 -60 186 -124 212 -140 214 -142 218 -172 2 -19 -2 -22 -18 -18 -11 3
-20 2 -20 -2 0 -4 -15 -8 -32 -9 -18 0 -60 -8 -93 -18 -33 -9 -67 -18 -75 -19
-8 -1 -22 -5 -30 -7 -8 -3 -33 -10 -55 -16 -22 -6 -131 -36 -243 -67 -112 -31
-209 -58 -215 -59 -7 -1 -16 -4 -22 -8 -10 -5 -66 -19 -82 -20 -5 0 -15 -4
-24 -9 -9 -4 -27 -10 -40 -13 -22 -4 -110 -29 -219 -61 -25 -8 -59 -16 -75
-19 -17 -3 -57 -14 -90 -25 -33 -10 -136 -40 -230 -66 -93 -25 -181 -50 -195
-55 -14 -4 -104 -29 -200 -55 -96 -25 -186 -52 -200 -58 -34 -17 -53 -11 -72
21 -18 31 -19 27 41 157 16 33 38 80 49 105 11 25 39 85 61 133 23 49 41 90
41 92 0 1 18 42 40 89 22 47 40 88 40 90 0 3 18 44 40 91 22 47 40 88 40 90 0
2 20 46 45 99 25 53 45 99 45 101 0 2 20 47 45 99 25 53 45 99 45 102 0 3 18
43 40 90 22 47 40 87 40 89 0 3 11 29 25 58 22 48 27 54 49 50 18 -4 35 3 56
20 17 15 37 24 45 21 8 -4 15 -1 15 6 0 6 -4 8 -10 5 -6 -4 -9 9 -8 34 1 30 6
41 22 46 31 10 35 12 111 40 39 15 81 29 95 32 13 2 30 9 37 15 7 6 13 8 13 5
0 -3 24 4 53 14 28 11 61 22 72 25 28 7 37 10 58 17 20 8 38 13 52 17 6 1 24
7 40 14 17 7 32 13 35 13 6 0 169 51 190 60 8 3 20 7 26 8 6 2 21 6 33 10 15
4 29 1 41 -10 19 -17 70 -12 70 7 0 6 9 8 20 5 13 -3 20 0 20 9 0 8 -6 11 -16
7 -10 -4 -17 1 -21 16 -8 32 -72 29 -96 -4z m-997 -429 c0 -5 -25 -60 -55
-123 -30 -63 -55 -117 -55 -119 0 -3 -13 -33 -29 -67 -99 -213 -171 -377 -171
-387 0 -6 -5 -10 -10 -10 -6 0 -9 -3 -8 -7 1 -5 -4 -19 -9 -33 -19 -44 -50
-113 -78 -175 -65 -143 -114 -254 -135 -300 -12 -27 -28 -66 -37 -85 -8 -19
-25 -57 -38 -85 -13 -27 -29 -64 -36 -82 -11 -27 -19 -32 -45 -31 -17 1 -45
-7 -62 -17 l-32 -19 -27 26 c-16 14 -84 68 -153 119 -69 51 -129 97 -135 101
-21 17 -71 54 -208 154 -78 56 -146 107 -152 111 -5 5 -31 23 -57 41 -69 48
-76 65 -37 102 17 16 35 27 40 24 5 -3 9 0 9 6 0 6 4 9 9 6 4 -3 53 23 108 58
55 35 183 113 284 173 101 61 234 141 294 178 61 38 184 113 275 168 173 104
238 144 348 215 37 23 79 48 94 55 16 6 28 15 28 20 0 4 10 11 22 16 22 8 58
-12 58 -33z m1613 -988 c2 -7 -6 -37 -19 -65 -13 -29 -20 -53 -16 -53 4 0 2
-4 -3 -8 -6 -4 -24 -47 -42 -97 -17 -49 -45 -128 -63 -175 -17 -47 -32 -89
-34 -95 -2 -5 -8 -23 -15 -40 -7 -16 -12 -30 -11 -30 2 0 -5 -18 -15 -40 -9
-22 -23 -60 -31 -85 -8 -25 -19 -54 -24 -65 -5 -11 -18 -47 -29 -80 -11 -33
-29 -85 -41 -115 -12 -30 -36 -98 -54 -150 -41 -116 -110 -306 -123 -340 -5
-14 -34 -91 -64 -172 l-54 -147 -32 4 c-41 4 -94 -10 -125 -34 l-24 -19 -49
45 c-28 25 -77 66 -110 91 -33 25 -64 50 -70 56 -5 6 -26 23 -47 38 -20 15
-42 33 -50 40 -7 7 -31 26 -53 43 -22 16 -68 52 -101 80 -34 27 -105 84 -158
125 -117 90 -216 170 -234 187 -7 7 -16 13 -20 13 -4 0 -21 13 -38 28 -17 15
-46 38 -64 52 -18 14 -38 30 -44 35 -6 6 -41 33 -77 60 -36 28 -83 65 -105 82
-21 18 -76 60 -122 93 -80 59 -83 63 -80 97 3 32 9 38 43 51 22 8 49 15 60 17
11 1 79 19 150 40 72 20 148 41 170 46 22 5 47 12 55 16 8 3 20 7 25 9 6 1 54
14 109 28 54 15 107 31 117 37 11 5 19 7 19 5 0 -3 12 -1 28 5 15 6 38 12 52
14 13 1 26 8 28 14 2 6 7 9 12 6 5 -3 48 6 97 19 157 44 388 108 403 111 8 2
62 18 120 35 58 17 112 33 121 35 25 5 103 27 119 33 8 3 20 6 25 7 6 2 42 12
80 23 39 11 93 25 120 32 28 6 57 14 65 18 8 3 19 4 24 3 4 -1 14 4 22 10 8 6
14 8 14 5 0 -4 8 -3 18 3 9 5 39 12 67 16 27 3 51 8 54 11 8 8 19 4 24 -8z
m-2358 -698 c25 -10 25 -10 19 -97 -11 -153 -12 -203 -3 -203 4 0 11 5 14 10
3 6 1 10 -5 10 -6 0 -8 5 -5 11 4 6 9 52 11 102 5 121 9 144 24 162 23 28 51
15 162 -72 61 -49 189 -150 286 -225 96 -76 191 -151 211 -168 50 -40 151
-120 191 -150 18 -14 39 -31 46 -37 7 -7 15 -13 18 -13 3 0 15 -8 25 -17 11
-10 26 -23 33 -28 7 -6 38 -31 68 -55 31 -25 71 -56 90 -70 18 -14 38 -30 44
-35 6 -6 38 -31 71 -57 33 -26 98 -78 145 -114 47 -37 86 -68 88 -69 1 -1 -6
-21 -17 -45 -11 -24 -17 -53 -15 -64 19 -86 24 -77 -72 -139 -49 -31 -94 -60
-99 -65 -6 -5 -15 -11 -20 -13 -6 -2 -82 -52 -170 -110 -295 -196 -400 -264
-410 -268 -5 -2 -26 -17 -46 -32 -20 -16 -40 -29 -43 -29 -4 0 -33 -18 -64
-39 -61 -42 -223 -150 -250 -166 -36 -23 -118 -76 -137 -89 -169 -118 -266
-168 -251 -130 3 8 -1 14 -9 14 -8 0 -15 -7 -15 -15 0 -25 -25 -17 -57 18 -34
37 -140 136 -198 186 -34 29 -122 108 -245 221 -24 22 -55 49 -164 143 -26 23
-185 168 -201 184 -7 6 -34 31 -61 54 -27 23 -88 77 -135 120 -47 44 -102 91
-121 106 -87 70 -114 102 -116 137 -2 33 3 38 120 131 68 54 128 103 133 109
6 7 19 18 31 26 19 14 102 81 128 105 6 6 34 28 61 50 28 22 55 44 60 51 6 6
30 26 55 44 25 19 56 44 70 56 35 31 109 93 158 132 22 19 50 41 60 50 11 10
41 35 67 57 26 22 55 47 65 55 9 8 32 26 50 40 43 32 195 162 240 205 39 37
47 39 85 25z"/>
<path d="M1789 4403 c-2 -95 -7 -218 -8 -218 -2 0 -10 -206 -14 -365 -1 -36
-6 -68 -12 -72 -6 -5 -5 -8 3 -8 8 0 10 -5 5 -12 -12 -21 -12 -38 1 -38 7 0
12 19 13 48 7 197 10 250 17 260 4 7 3 12 -3 12 -6 0 -8 6 -6 13 12 33 13 67
2 67 -8 0 -8 3 -2 8 11 8 13 23 19 215 3 80 1 137 -5 137 -5 0 -9 -21 -10 -47z"/>
<path d="M1758 3673 c7 -3 16 -2 19 1 4 3 -2 6 -13 5 -11 0 -14 -3 -6 -6z"/>
<path d="M1754 3630 c-1 -16 2 -30 7 -30 5 0 9 14 9 30 0 17 -3 30 -8 30 -4 0
-8 -13 -8 -30z"/>
<path d="M1752 3515 c-1 -41 1 -75 5 -75 5 0 9 34 9 75 1 41 -1 75 -5 75 -4 0
-8 -34 -9 -75z"/>
<path d="M1744 3380 c0 -28 5 -50 11 -50 5 0 10 16 10 35 0 19 -4 35 -9 35 -5
0 -3 7 4 15 10 12 10 15 -2 15 -10 0 -14 -14 -14 -50z"/>
<path d="M1744 3312 c-11 -8 -12 -22 -1 -39 4 -7 3 -22 -4 -34 -8 -15 -8 -19
0 -15 12 8 15 -6 4 -17 -11 -11 -12 -77 -1 -77 6 0 5 -6 -2 -15 -7 -8 -9 -15
-5 -15 4 0 2 -7 -5 -15 -7 -8 -9 -15 -4 -15 5 0 9 -14 10 -30 1 -17 -3 -30 -9
-30 -5 0 -4 -7 4 -16 7 -9 9 -18 3 -22 -10 -8 -16 -68 -13 -134 0 -7 -1 -30
-3 -50 -3 -26 0 -38 8 -38 8 0 11 12 9 37 -2 21 1 45 6 55 7 14 6 20 -6 24 -8
3 -12 10 -9 15 3 5 8 7 12 5 4 -2 7 42 7 99 0 57 2 102 5 100 8 -5 5 39 -4 53
-4 7 -3 12 1 12 5 0 8 12 8 28 -1 15 2 36 6 48 4 11 3 27 -1 34 -5 8 -4 22 1
31 10 19 -1 32 -17 21z"/>
<path d="M1718 2733 c-2 -5 -3 -39 -3 -78 0 -38 -4 -74 -10 -78 -6 -5 -4 -7 5
-4 10 2 15 16 15 43 0 21 4 42 10 46 6 5 5 8 -3 8 -9 0 -10 5 -2 19 7 14 7 22
-1 27 -8 4 -7 9 2 15 10 6 10 9 2 9 -6 0 -13 -3 -15 -7z"/>
<path d="M1710 2550 c0 -5 5 -10 10 -10 6 0 10 5 10 10 0 6 -4 10 -10 10 -5 0
-10 -4 -10 -10z"/>
<path d="M1707 2505 c3 -14 9 -25 12 -25 12 0 6 43 -6 47 -6 2 -8 -7 -6 -22z"/>
<path d="M3670 6848 c0 -4 5 -9 10 -9 20 -3 25 -4 38 -12 6 -5 12 -6 12 -4 0
3 30 -4 67 -14 58 -15 87 -18 72 -6 -12 10 -199 52 -199 45z"/>
<path d="M3880 6790 c0 -8 24 -14 33 -8 1 1 12 -4 25 -11 14 -7 22 -8 22 -2 0
6 -12 13 -27 17 -16 3 -34 7 -40 10 -7 2 -13 -1 -13 -6z"/>
<path d="M3970 6770 c0 -7 94 -40 114 -40 12 0 6 17 -6 17 -7 1 -34 8 -60 16
-27 8 -48 11 -48 7z"/>
<path d="M4100 6729 c0 -5 8 -9 19 -9 10 0 38 -7 62 -16 24 -8 51 -17 59 -19
8 -2 30 -8 48 -14 18 -5 36 -11 40 -12 18 -4 39 -11 59 -19 12 -5 25 -5 28 -1
2 5 -3 11 -13 14 -229 69 -302 87 -302 76z"/>
<path d="M4456 6592 c-3 -4 4 -9 15 -9 23 -2 25 3 4 10 -8 4 -16 3 -19 -1z"/>
<path d="M3466 6582 c-3 -5 -28 -8 -55 -8 -28 1 -51 -2 -51 -6 0 -5 3 -8 8 -9
4 0 15 -2 24 -4 10 -2 21 1 24 7 4 6 9 6 14 -2 5 -8 13 -9 21 -4 20 12 38 14
45 3 3 -5 11 -6 17 -2 19 12 57 11 57 -1 0 -8 3 -8 8 0 4 7 28 11 53 10 36 -1
45 2 41 12 -3 10 -7 11 -12 2 -4 -7 -10 -8 -13 -3 -6 10 -48 10 -64 0 -7 -4
-15 -3 -18 3 -4 7 -12 7 -18 2 -14 -10 -47 -10 -64 1 -6 4 -14 4 -17 -1z"/>
<path d="M3699 6588 c-8 -31 -6 -37 9 -30 10 5 45 8 78 7 48 -1 59 1 50 11 -8
9 -15 9 -24 1 -10 -8 -16 -7 -23 4 -6 10 -9 10 -9 2 0 -15 -21 -13 -32 2 -5 6
-8 5 -8 -3 0 -10 -5 -10 -20 -2 -11 6 -20 9 -21 8z"/>
<path d="M3865 6580 c-7 -12 -9 -11 33 -15 17 -2 32 1 32 6 0 6 -4 8 -9 5 -5
-4 -12 0 -14 6 -4 10 -6 9 -6 -1 -1 -10 -4 -11 -15 -2 -10 8 -16 9 -21 1z"/>
<path d="M3946 6576 c7 -18 26 -17 30 2 1 7 0 8 -3 2 -3 -8 -9 -7 -19 1 -12
10 -13 9 -8 -5z"/>
<path d="M3994 6578 c-3 -4 -4 -8 -2 -9 25 -6 35 -5 35 5 0 14 -25 17 -33 4z"/>
<path d="M4067 6577 c4 -6 -1 -8 -11 -4 -9 4 -15 3 -11 -2 8 -13 42 -9 42 4 0
7 -6 12 -13 12 -7 0 -10 -5 -7 -10z"/>
<path d="M4101 6574 c0 -11 3 -14 6 -6 3 7 2 16 -1 19 -3 4 -6 -2 -5 -13z"/>
<path d="M4120 6580 c0 -5 5 -10 11 -10 5 0 7 5 4 10 -3 6 -8 10 -11 10 -2 0
-4 -4 -4 -10z"/>
<path d="M4173 6573 c0 -7 4 -13 9 -13 4 0 8 4 8 9 0 5 11 8 25 5 14 -2 25 -1
25 4 0 4 -15 8 -33 8 -21 0 -34 -5 -34 -13z"/>
<path d="M4250 6578 c0 -7 88 -4 95 4 3 3 -18 4 -45 4 -28 -1 -50 -4 -50 -8z"/>
<path d="M4356 6573 c-6 -14 -5 -15 5 -6 7 7 10 15 7 18 -3 3 -9 -2 -12 -12z"/>
<path d="M3275 6571 c-3 -2 -5 -9 -5 -15 0 -6 5 -4 10 4 5 8 10 10 10 4 0 -6
6 -11 13 -11 8 0 14 5 14 12 0 10 -33 15 -42 6z"/>
<path d="M3330 6566 c0 -9 5 -16 10 -16 6 0 10 4 10 9 0 6 -4 13 -10 16 -5 3
-10 -1 -10 -9z"/>
<path d="M2934 6560 c-9 -3 -36 -5 -60 -4 -24 1 -44 -2 -44 -6 0 -4 58 -7 130
-6 97 1 130 4 130 14 0 15 -12 16 -28 0 -7 -7 -12 -8 -12 -2 0 10 -90 13 -116
4z"/>
<path d="M3103 6557 c-2 -4 32 -6 76 -5 45 2 81 6 81 10 0 10 -151 5 -157 -5z"/>
<path d="M2760 6549 c0 -4 -7 -6 -15 -3 -8 4 -15 2 -15 -4 0 -5 14 -8 30 -7
39 3 47 11 20 18 -11 3 -20 1 -20 -4z"/>
<path d="M2811 6544 c0 -11 3 -14 6 -6 3 7 2 16 -1 19 -3 4 -6 -2 -5 -13z"/>
<path d="M4764 6522 c11 -12 25 -22 33 -22 8 0 28 -8 46 -17 18 -9 34 -18 37
-18 3 -1 36 -16 74 -33 38 -18 72 -32 77 -32 4 0 20 -6 36 -14 42 -21 163 -76
169 -76 7 0 92 -38 194 -88 55 -26 112 -62 136 -86 23 -23 52 -51 65 -63 33
-30 41 -41 74 -98 16 -28 33 -51 37 -53 4 -2 8 -10 8 -17 0 -7 5 -15 11 -17 5
-2 11 -10 13 -18 4 -21 40 -80 49 -80 4 0 0 12 -9 28 -13 21 -10 19 13 -8 17
-19 29 -38 27 -42 -3 -4 5 -12 16 -18 11 -6 19 -14 16 -18 -5 -8 14 -37 29
-43 5 -2 9 -7 8 -11 -3 -9 27 -32 33 -25 6 6 -50 85 -69 98 -5 3 -9 10 -9 15
-1 11 -50 78 -60 82 -5 2 -8 8 -8 13 0 5 -36 63 -80 130 -44 67 -77 125 -75
130 10 15 -6 55 -27 68 -17 10 -23 10 -39 -5 -19 -17 -21 -16 -62 6 -77 42
-151 77 -287 135 -74 31 -151 64 -170 72 -55 25 -123 54 -145 63 -11 5 -47 21
-80 37 -33 15 -62 28 -65 28 -3 0 -12 4 -20 9 -9 6 -7 1 4 -12z"/>
<path d="M2351 6503 c-1 -6 -9 -11 -18 -11 -23 1 -93 -11 -104 -18 -5 -3 -18
-7 -28 -9 -11 -2 -54 -13 -96 -25 -42 -12 -84 -23 -93 -25 -9 -2 -62 -15 -117
-30 -55 -15 -115 -31 -133 -35 -19 -5 -37 -11 -40 -15 -11 -11 56 1 138 25 41
11 84 23 95 25 20 4 110 28 175 46 19 6 41 11 48 11 6 1 12 4 12 8 0 3 8 6 18
7 21 2 77 11 77 13 0 1 16 4 35 6 49 7 60 11 60 26 0 10 -2 10 -9 -1 -7 -11
-9 -11 -14 0 -3 9 -6 10 -6 2z"/>
<path d="M1612 6344 c-18 -12 -38 -79 -21 -69 4 3 9 -2 12 -10 10 -24 77 0 77
28 0 5 8 16 17 23 10 7 14 16 10 20 -4 5 -12 3 -16 -5 -7 -10 -9 -10 -14 2 -8
21 -43 27 -65 11z"/>
<path d="M1565 6250 c-3 -5 1 -10 9 -10 9 0 16 5 16 10 0 6 -4 10 -9 10 -6 0
-13 -4 -16 -10z"/>
<path d="M5830 5780 c0 -5 5 -10 11 -10 5 0 7 5 4 10 -3 6 -8 10 -11 10 -2 0
-4 -4 -4 -10z"/>
<path d="M5833 5745 c0 -8 4 -12 9 -9 5 3 6 10 3 15 -9 13 -12 11 -12 -6z"/>
<path d="M5874 5676 c1 -8 5 -18 8 -22 4 -3 5 1 4 10 -1 8 -5 18 -8 22 -4 3
-5 -1 -4 -10z"/>
<path d="M5960 5630 c8 -5 11 -10 6 -10 -6 0 0 -9 12 -21 12 -11 20 -24 17
-29 -3 -5 7 -18 21 -29 16 -12 21 -21 13 -21 -8 -1 -4 -6 9 -13 12 -7 20 -15
18 -18 -3 -3 6 -18 19 -33 14 -16 25 -33 25 -38 0 -4 8 -8 18 -7 10 0 12 3 4
6 -6 2 -10 9 -6 14 3 5 -2 12 -10 15 -9 3 -16 10 -16 15 0 6 -19 36 -42 67
-24 31 -42 60 -40 65 1 4 -2 7 -7 7 -5 0 -13 9 -16 20 -3 11 -14 20 -23 20
-15 0 -15 -2 -2 -10z m61 -77 c13 -16 12 -17 -3 -4 -10 7 -18 15 -18 17 0 8 8
3 21 -13z"/>
<path d="M5905 5600 c-3 -6 1 -7 9 -4 18 7 21 14 7 14 -6 0 -13 -4 -16 -10z"/>
<path d="M5931 5559 c0 -8 8 -25 19 -37 11 -12 20 -26 20 -32 0 -5 5 -10 11
-10 5 0 7 -5 3 -12 -5 -7 -3 -8 6 -3 10 6 12 4 7 -8 -3 -10 -2 -17 3 -17 6 0
10 -7 10 -15 0 -8 4 -15 10 -15 13 0 -8 47 -42 91 -15 20 -24 40 -20 44 4 5 2
5 -5 1 -6 -3 -13 1 -16 11 -4 14 -5 14 -6 2z"/>
<path d="M4501 5454 c0 -11 3 -14 6 -6 3 7 2 16 -1 19 -3 4 -6 -2 -5 -13z"/>
<path d="M4520 5462 c0 -20 60 -35 67 -17 2 6 -9 10 -24 9 -16 0 -31 4 -35 10
-5 8 -8 7 -8 -2z"/>
<path d="M4600 5437 c0 -6 3 -8 6 -4 3 3 17 2 30 -3 17 -7 24 -6 24 3 0 7 -13
13 -30 13 -16 1 -30 -3 -30 -9z"/>
<path d="M4670 5430 c0 -5 16 -8 35 -6 19 1 35 0 35 -4 0 -3 8 -6 18 -7 36 -1
149 -13 192 -19 25 -4 64 -7 87 -8 24 0 43 -4 43 -7 0 -3 23 -7 51 -8 29 -1
55 -3 58 -5 4 -3 36 -7 71 -10 36 -3 75 -8 88 -10 12 -3 22 -1 22 5 0 5 -6 9
-12 10 -7 0 -26 2 -43 4 -119 15 -154 18 -187 19 -21 1 -38 4 -38 7 0 4 -10 7
-22 6 -13 0 -52 3 -88 8 -36 4 -81 9 -100 11 -19 1 -35 3 -35 4 0 2 -51 8
-117 14 -32 2 -58 0 -58 -4z"/>
<path d="M859 5423 c0 -5 -3 -17 -5 -28 -3 -11 -6 -26 -6 -32 -1 -7 -5 -13
-10 -13 -4 0 -7 -3 -6 -7 2 -5 -2 -21 -8 -38 -30 -82 -33 -95 -19 -95 7 0 18
19 24 43 6 23 20 72 30 110 11 37 16 67 10 67 -5 0 -9 -3 -10 -7z"/>
<path d="M6118 5393 c6 -2 12 -11 12 -19 0 -8 5 -14 10 -14 6 0 10 -5 10 -11
0 -6 9 -22 20 -36 18 -23 20 -24 20 -6 0 10 -9 29 -20 41 -11 12 -20 25 -20
31 0 9 -25 22 -38 20 -4 0 -1 -3 6 -6z"/>
<path d="M5380 5350 c0 -5 5 -12 10 -15 6 -3 10 -1 10 5 0 6 5 8 13 3 6 -4 30
-8 52 -10 22 -1 40 -2 40 -3 0 -3 41 -9 105 -16 36 -3 76 -8 90 -10 14 -3 53
-6 88 -9 34 -2 71 -6 81 -10 11 -3 22 -2 25 3 6 9 4 10 -69 16 -27 2 -50 5
-50 6 0 1 -16 3 -35 5 -31 2 -103 11 -180 20 -14 2 -50 6 -81 9 -31 4 -65 8
-77 11 -12 2 -22 0 -22 -5z"/>
<path d="M5914 5289 c2 -14 63 -22 71 -9 3 5 -4 7 -15 5 -11 -2 -20 1 -20 7 0
7 -5 7 -14 -1 -10 -8 -16 -9 -19 -1 -4 6 -5 6 -3 -1z"/>
<path d="M6198 5288 c-4 -10 -3 -18 2 -18 6 0 10 -7 10 -15 0 -8 5 -15 10 -15
6 0 10 -6 10 -13 0 -7 9 -19 20 -27 11 -8 20 -22 20 -32 0 -10 7 -18 16 -18 8
0 12 -5 9 -10 -9 -14 14 -42 27 -34 6 4 8 -2 3 -15 -4 -15 -3 -21 7 -19 7 2
12 -3 11 -9 -2 -7 2 -13 9 -13 6 0 9 -3 5 -6 -3 -4 -1 -12 6 -19 28 -30 47
-56 47 -65 0 -6 5 -10 10 -10 6 0 10 -7 10 -15 0 -8 8 -15 18 -15 14 0 15 2 2
10 -8 5 -11 10 -7 10 8 0 3 7 -38 54 -13 16 -22 32 -20 36 3 4 -2 11 -11 14
-8 3 -13 10 -10 15 4 5 3 11 -2 13 -4 1 -21 24 -38 50 -17 26 -35 44 -39 40
-5 -4 -5 -2 -1 5 4 7 -2 23 -14 35 -42 48 -48 57 -42 62 3 3 0 6 -6 6 -6 0
-12 8 -14 18 -3 16 -4 16 -10 0z"/>
<path d="M5996 5272 c-2 -4 4 -8 15 -8 10 0 19 4 19 8 0 4 -6 8 -14 8 -8 0
-17 -4 -20 -8z"/>
<path d="M790 5196 c0 -2 -14 -50 -31 -107 -17 -57 -32 -108 -33 -114 -2 -5
-8 -28 -14 -50 -6 -22 -12 -43 -12 -48 0 -4 -6 -23 -14 -42 -8 -19 -13 -35
-11 -35 2 0 -3 -19 -11 -42 -14 -40 -26 -90 -27 -115 0 -7 -5 -13 -10 -13 -5
0 -7 -7 -4 -15 4 -8 2 -17 -4 -20 -5 -4 -7 -10 -4 -15 3 -5 1 -11 -4 -15 -6
-3 -8 -12 -4 -20 3 -8 -1 -15 -8 -15 -7 0 -10 -3 -6 -6 3 -3 -1 -27 -9 -52 -9
-26 -21 -69 -29 -97 -7 -27 -23 -84 -35 -125 -12 -41 -23 -85 -25 -97 -2 -12
-6 -27 -10 -32 -3 -6 -8 -19 -10 -28 -16 -62 -54 -194 -60 -203 -3 -5 2 -10
11 -10 10 0 15 2 12 6 -3 3 1 26 9 52 8 26 16 54 18 62 1 8 13 44 25 80 12 36
24 74 25 85 2 11 4 20 5 20 1 0 3 7 5 15 9 35 64 217 74 243 6 15 9 27 6 27
-2 0 5 26 16 57 11 32 22 71 25 88 2 16 13 57 23 90 11 33 45 150 76 260 31
110 58 208 61 218 3 9 1 17 -5 17 -6 0 -11 -2 -11 -4z"/>
<path d="M6214 5108 c-5 -8 -2 -9 10 -5 11 4 15 3 11 -4 -4 -6 1 -17 11 -24
11 -8 15 -15 11 -15 -8 0 4 -16 43 -58 13 -15 24 -30 22 -34 -1 -5 1 -7 6 -7
18 3 32 -2 32 -12 0 -5 -6 -7 -12 -3 -7 5 1 -8 17 -28 17 -20 38 -40 48 -43
10 -4 16 -9 13 -13 -9 -8 35 -52 53 -53 9 0 11 -3 4 -5 -7 -3 -1 -16 18 -33
16 -15 25 -32 21 -37 -4 -4 2 -2 12 6 12 9 17 10 12 3 -4 -8 19 -48 61 -105
38 -51 84 -116 102 -145 19 -29 39 -50 45 -46 6 3 5 0 -1 -8 -18 -18 -16 -57
3 -76 12 -12 22 -14 42 -7 22 8 27 16 27 43 0 28 -6 38 -30 51 -16 9 -52 48
-80 87 -27 39 -77 108 -110 153 -33 45 -64 90 -70 101 -5 10 -18 19 -27 19
-10 0 -18 5 -18 11 0 5 5 7 10 4 13 -8 13 -2 -2 30 -6 14 -15 25 -20 25 -4 0
-7 5 -5 11 1 6 -4 13 -11 15 -7 1 -8 0 -2 -3 7 -3 7 -10 -2 -21 -7 -10 -9 -14
-4 -10 12 10 39 -20 32 -37 -3 -8 -10 -15 -16 -15 -6 0 -8 5 -5 10 3 6 -1 10
-9 10 -9 0 -15 3 -14 8 3 14 -14 42 -23 36 -5 -3 -9 2 -9 11 0 9 -3 14 -7 12
-9 -6 -27 13 -31 33 -4 16 -61 70 -74 70 -4 0 -8 5 -8 11 0 5 5 7 12 3 7 -4 8
-3 4 5 -4 6 -11 9 -15 7 -4 -3 -17 15 -29 39 -22 46 -35 54 -48 33z m301 -318
c3 -6 -1 -7 -9 -4 -18 7 -21 14 -7 14 6 0 13 -4 16 -10z"/>
<path d="M6167 5072 c3 -12 9 -25 14 -28 14 -8 11 10 -6 32 -13 18 -14 18 -8
-4z"/>
<path d="M6180 5020 c0 -5 5 -10 10 -10 6 0 10 5 10 10 0 6 -4 10 -10 10 -5 0
-10 -4 -10 -10z"/>
<path d="M6190 4990 c0 -5 5 -10 11 -10 5 0 8 -4 5 -8 -3 -5 2 -22 10 -38 9
-16 14 -29 13 -29 -6 0 25 -101 34 -112 5 -7 6 -13 2 -13 -4 0 -2 -7 5 -15 7
-8 9 -15 6 -15 -4 0 -2 -9 4 -21 6 -11 13 -28 15 -37 2 -9 22 -68 44 -129 22
-62 38 -113 36 -113 -2 0 2 -12 10 -27 8 -15 12 -30 9 -35 -3 -4 0 -8 5 -8 6
0 11 -8 11 -17 0 -17 32 -122 51 -168 4 -11 44 -130 89 -265 44 -135 85 -253
90 -262 6 -10 10 -24 10 -32 0 -21 21 -66 31 -66 4 0 1 16 -7 35 -8 19 -11 35
-8 35 4 0 2 6 -4 13 -8 10 -78 223 -82 249 -1 4 -12 35 -26 70 -13 34 -24 70
-24 80 0 10 -4 18 -8 18 -5 0 -9 6 -9 13 0 10 -33 115 -74 232 -5 17 -12 37
-14 45 -1 8 -13 42 -25 75 -12 33 -26 74 -30 90 -5 17 -43 129 -84 250 -42
121 -76 221 -76 223 0 8 -20 0 -20 -8z"/>
<path d="M319 4353 c-6 -55 -6 -73 -1 -73 4 0 8 18 8 40 1 22 -1 40 -2 40 -2
0 -4 -3 -5 -7z"/>
<path d="M6777 4333 c-2 -5 -4 -70 -3 -146 0 -75 -3 -137 -8 -137 -5 0 -2 -7
5 -17 11 -13 11 -17 2 -20 -9 -3 -10 -10 -3 -24 6 -10 7 -19 2 -19 -5 0 -8
-14 -6 -32 2 -17 -1 -37 -7 -44 -6 -8 -6 -14 0 -18 9 -6 6 -50 -5 -67 -2 -4 1
-11 7 -15 8 -4 7 -9 -2 -15 -11 -7 -11 -9 2 -9 13 0 16 12 15 65 -1 36 1 65 4
65 3 0 5 61 5 135 0 74 4 135 9 135 5 0 3 6 -3 14 -9 11 -9 15 1 19 10 4 10 6
1 6 -7 1 -13 6 -13 12 0 5 5 7 11 3 8 -4 8 -1 1 13 -7 12 -7 24 0 37 8 13 7
17 0 12 -7 -4 -10 4 -7 24 3 29 1 38 -8 23z"/>
<path d="M314 4235 c1 -20 -2 -35 -8 -35 -6 0 -5 -4 3 -9 8 -5 9 -11 3 -15 -7
-4 -7 -17 -2 -36 5 -17 5 -30 0 -30 -4 0 -6 -9 -3 -20 12 -45 19 -14 19 80 -1
55 -4 100 -8 100 -4 0 -6 -16 -4 -35z"/>
<path d="M318 3958 c2 -57 5 -122 5 -145 0 -23 4 -40 8 -37 4 2 6 28 4 57 -2
28 -4 91 -5 140 -1 48 -6 87 -10 87 -4 0 -5 -46 -2 -102z"/>
<path d="M201 3928 c-1 -13 -3 -49 -4 -80 -1 -32 -5 -58 -9 -58 -3 0 -4 -9 -1
-21 4 -12 0 -25 -8 -30 -11 -7 -11 -9 -1 -9 7 0 10 -5 7 -10 -4 -6 -9 -36 -11
-68 -6 -82 -10 -107 -18 -120 -4 -7 -2 -12 4 -12 7 0 8 -6 2 -17 -5 -10 -9
-39 -8 -66 0 -26 -2 -47 -5 -47 -3 0 -6 -19 -6 -42 -2 -65 -11 -147 -18 -158
-3 -6 -1 -10 4 -10 6 0 11 3 12 8 0 4 2 16 5 27 2 11 5 41 7 67 2 26 6 51 10
54 4 4 2 13 -4 21 -7 8 -8 13 -1 13 5 0 8 14 7 30 -1 17 2 30 9 30 7 0 7 3 1
8 -11 8 -15 52 -5 52 4 0 6 10 6 23 -1 12 2 30 6 40 6 11 5 17 -4 17 -9 0 -9
3 -2 8 5 4 10 24 10 45 -1 20 1 37 4 37 3 0 6 12 7 28 1 15 4 57 7 95 3 37 8
72 11 77 3 6 0 10 -7 10 -9 0 -9 3 -2 8 12 8 17 72 5 72 -4 0 -8 -10 -10 -22z"/>
<path d="M401 3844 c-9 -20 -9 -25 0 -22 14 5 32 48 20 48 -4 0 -13 -12 -20
-26z"/>
<path d="M390 3789 c0 -11 -4 -18 -9 -15 -5 4 -8 -5 -6 -19 1 -14 -2 -25 -6
-25 -5 0 -9 -9 -9 -20 0 -20 19 -29 21 -10 1 6 2 18 4 28 1 9 5 25 8 35 15 37
16 47 7 47 -6 0 -10 -9 -10 -21z"/>
<path d="M325 3749 c-11 -16 -1 -19 13 -3 7 8 8 14 3 14 -5 0 -13 -5 -16 -11z"/>
<path d="M6762 3753 c-6 -2 -10 -9 -6 -14 8 -14 21 -11 21 6 0 8 -1 15 -1 14
-1 0 -7 -3 -14 -6z"/>
<path d="M6754 3693 c0 -12 3 -23 7 -23 4 0 9 11 11 23 3 14 0 24 -7 24 -6 0
-11 -11 -11 -24z"/>
<path d="M6759 3658 c-6 -11 -4 -98 1 -98 4 0 8 23 9 50 1 41 -3 61 -10 48z"/>
<path d="M6688 3521 c9 -23 20 -41 24 -41 11 0 -17 73 -30 78 -7 2 -4 -13 6
-37z"/>
<path d="M3662 3541 c4 -15 6 -16 138 -26 124 -11 210 -12 210 -4 0 12 -33 16
-57 7 -13 -4 -23 -4 -23 0 0 4 -24 7 -52 8 -125 3 -204 10 -211 19 -5 6 -7 4
-5 -4z"/>
<path d="M6753 3530 c-1 -11 2 -18 8 -15 11 7 12 35 1 35 -4 0 -8 -9 -9 -20z"/>
<path d="M371 3493 c4 -21 8 -39 8 -41 9 -59 15 -83 22 -88 5 -3 7 -8 5 -12
-2 -4 0 -27 5 -52 5 -25 12 -61 15 -80 7 -38 11 -46 20 -37 3 3 1 27 -5 54 -6
26 -13 61 -16 77 -2 15 -7 36 -10 46 -3 10 -8 28 -10 39 -3 12 -7 31 -10 44
-3 12 -8 37 -11 55 -3 17 -10 32 -14 32 -4 0 -4 -17 1 -37z"/>
<path d="M4020 3503 c0 -10 5 -11 17 -5 9 5 29 6 44 2 18 -6 29 -4 32 3 3 8
-12 12 -44 12 -35 1 -49 -3 -49 -12z"/>
<path d="M4127 3507 c-3 -9 14 -13 63 -14 37 -2 85 -5 106 -8 66 -9 184 -16
294 -19 58 -1 111 -6 118 -10 7 -4 12 -2 12 5 0 9 3 9 14 0 11 -9 16 -9 21 0
6 8 10 7 17 -2 8 -12 9 -12 6 0 -3 10 -23 15 -68 17 -265 10 -361 15 -381 20
-13 3 -58 6 -99 7 -41 2 -80 6 -86 10 -7 4 -14 1 -17 -6z"/>
<path d="M315 3500 c3 -5 1 -10 -5 -10 -7 0 -10 -6 -7 -14 3 -8 1 -17 -6 -20
-7 -2 -4 -5 7 -5 12 -1 16 4 13 14 -4 8 -2 17 3 20 13 8 13 25 -1 25 -5 0 -7
-4 -4 -10z"/>
<path d="M6751 3488 c-1 -15 -14 -24 -23 -16 -8 7 -63 -52 -75 -80 -11 -27
-17 -31 -28 -22 -9 7 -15 8 -20 0 -3 -5 -5 -10 -3 -11 2 0 12 -2 22 -4 11 -2
24 -12 29 -22 6 -10 25 -32 43 -48 19 -17 35 -41 37 -53 5 -34 16 -38 12 -4
-3 25 1 32 32 48 38 21 63 59 63 98 0 25 -49 86 -69 86 -5 0 -12 10 -14 23 -3
14 -5 16 -6 5z"/>
<path d="M4790 3461 c0 -4 21 -8 48 -8 26 -1 72 -4 102 -7 91 -8 272 -19 323
-20 26 0 47 -4 47 -8 0 -5 5 -8 11 -8 8 0 8 4 0 14 -7 8 -25 13 -41 12 -17 -1
-30 0 -30 3 0 3 -35 7 -78 8 -119 2 -218 9 -231 17 -6 4 -11 2 -11 -4 0 -6 -5
-8 -12 -4 -15 10 -128 14 -128 5z"/>
<path d="M290 3430 c0 -5 0 -12 0 -15 0 -12 14 -4 16 10 1 8 -2 15 -7 15 -5 0
-9 -4 -9 -10z"/>
<path d="M5749 3399 c-10 -7 -7 -8 11 -5 14 1 37 0 53 -5 15 -4 27 -4 27 1 0
4 16 4 35 0 24 -6 35 -4 35 4 0 14 -140 19 -161 5z"/>
<path d="M5929 3399 c-8 -5 -8 -9 0 -13 6 -4 11 -1 11 6 0 8 3 9 8 3 4 -6 25
-10 47 -10 22 1 44 -4 48 -10 5 -6 7 -2 4 10 -2 11 -9 19 -18 17 -38 -10 -49
-10 -49 -4 0 10 -37 10 -51 1z"/>
<path d="M6060 3401 c0 -6 5 -12 10 -12 20 -3 25 -4 39 -13 10 -6 12 -5 7 2
-5 8 1 11 18 10 15 -1 26 -5 26 -8 0 -3 20 -5 45 -5 25 0 45 4 45 9 0 4 -9 6
-20 3 -10 -3 -21 0 -24 7 -3 7 -5 7 -5 -2 -1 -9 -6 -10 -18 -3 -10 5 -36 8
-59 8 -22 0 -45 3 -52 7 -7 4 -12 2 -12 -3z"/>
<path d="M275 3380 c-3 -5 1 -10 9 -10 9 0 16 5 16 10 0 6 -4 10 -9 10 -6 0
-13 -4 -16 -10z"/>
<path d="M6260 3381 c0 -4 11 -7 25 -7 14 0 25 3 25 7 0 3 -11 7 -25 7 -14 0
-25 -4 -25 -7z"/>
<path d="M6320 3382 c0 -4 9 -8 20 -9 11 -1 20 2 20 5 0 4 -9 8 -20 9 -11 1
-20 -2 -20 -5z"/>
<path d="M6374 3378 c-3 -4 2 -8 10 -8 8 0 17 4 20 8 3 5 -2 9 -10 9 -8 0 -17
-4 -20 -9z"/>
<path d="M6417 3377 c-4 -10 2 -14 23 -13 16 1 32 5 37 10 4 5 3 6 -4 2 -8 -4
-13 -2 -13 6 0 9 -3 9 -10 -2 -8 -12 -12 -13 -19 -2 -7 11 -9 11 -14 -1z"/>
<path d="M6510 3379 c0 -5 -6 -7 -12 -3 -9 5 -9 3 1 -9 15 -19 33 -13 24 8 -6
17 -13 20 -13 4z"/>
<path d="M6545 3367 c7 -16 45 -20 45 -5 0 6 -3 8 -6 5 -4 -3 -15 -2 -25 4
-14 7 -17 6 -14 -4z"/>
<path d="M260 3356 c0 -2 7 -6 15 -10 8 -3 15 -1 15 4 0 6 -7 10 -15 10 -8 0
-15 -2 -15 -4z"/>
<path d="M261 3322 c-1 -37 -14 -92 -20 -92 -4 0 -8 -7 -8 -15 0 -8 -5 -34
-12 -57 -7 -24 -17 -61 -23 -83 -6 -22 -17 -62 -25 -88 -8 -27 -13 -50 -10
-53 5 -5 27 44 30 67 2 8 6 20 11 27 4 7 5 16 2 19 -3 3 -1 14 5 25 6 11 13
32 16 46 6 35 9 43 16 65 15 39 19 54 23 86 3 19 9 40 15 47 6 8 5 13 -5 17
-9 4 -15 0 -15 -11z"/>
<path d="M5388 3246 c-25 -26 -26 -27 -113 -136 -33 -41 -62 -77 -65 -80 -6
-6 -97 -115 -120 -144 -8 -10 -20 -23 -25 -30 -6 -6 -28 -33 -50 -61 -45 -55
-75 -92 -90 -109 -10 -11 -94 -113 -108 -131 -4 -5 -19 -23 -33 -40 -22 -27
-217 -265 -236 -290 -5 -5 -19 -23 -33 -38 -14 -15 -49 -58 -79 -95 -29 -37
-64 -78 -77 -93 -13 -14 -44 -52 -69 -85 -24 -32 -55 -70 -69 -84 -13 -14 -35
-40 -50 -59 -14 -19 -39 -49 -54 -65 -16 -17 -36 -41 -44 -53 -17 -25 -60 -31
-93 -13 -15 8 -20 6 -25 -9 -3 -11 -15 -23 -26 -26 -10 -4 -19 -13 -19 -22 0
-13 -3 -13 -15 -3 -9 7 -15 8 -15 2 0 -5 7 -13 16 -16 28 -11 13 -58 -26 -83
-19 -12 -39 -26 -45 -30 -5 -5 -31 -19 -57 -32 -27 -13 -48 -29 -48 -34 0 -6
-3 -8 -6 -4 -4 3 -33 -12 -65 -33 -32 -22 -60 -40 -63 -40 -7 0 -130 -73 -136
-81 -3 -3 -9 -8 -15 -10 -8 -3 -104 -59 -163 -94 -157 -94 -369 -221 -377
-225 -27 -14 -111 -65 -115 -71 -3 -3 -27 -18 -55 -33 -27 -14 -67 -36 -87
-48 -20 -13 -69 -43 -110 -67 -40 -25 -81 -51 -90 -59 -10 -8 -18 -11 -18 -6
0 5 -5 2 -10 -6 -6 -10 -10 -11 -10 -3 0 14 -54 45 -63 37 -3 -3 -10 3 -16 14
-6 11 -7 22 -4 26 3 3 1 6 -5 6 -6 0 -14 -5 -17 -10 -3 -6 -2 -10 2 -10 5 0
14 -9 21 -20 10 -17 9 -23 -7 -39 -16 -16 -22 -17 -30 -7 -6 7 -7 17 -3 21 4
5 1 5 -6 1 -7 -4 -15 -1 -18 8 -3 9 -12 16 -19 16 -7 0 -15 4 -17 10 -2 8 -78
65 -161 122 -11 7 -74 52 -140 100 -67 48 -143 102 -170 120 -26 18 -69 49
-95 68 -66 48 -79 57 -222 159 -69 49 -150 108 -181 130 -31 23 -60 41 -63 41
-4 0 -16 9 -27 19 -12 11 -58 44 -103 75 -45 31 -92 65 -103 76 -12 11 -27 20
-33 20 -5 0 -10 5 -10 10 0 6 -10 10 -22 10 -23 -1 -23 -1 -3 -13 17 -10 150
-107 205 -150 9 -7 36 -26 60 -43 93 -64 395 -278 400 -284 3 -3 12 -9 22 -15
15 -10 124 -87 367 -259 62 -45 139 -99 170 -120 31 -22 59 -44 63 -50 4 -6 8
-7 8 -1 0 5 13 -5 30 -23 16 -18 32 -32 35 -32 3 0 5 -2 5 -5 0 -13 42 -45 52
-39 6 4 8 3 5 -3 -9 -14 49 -37 93 -38 19 -1 35 -6 35 -12 0 -6 4 -15 8 -20 5
-4 7 -1 5 7 -2 8 2 14 9 13 8 -2 10 4 6 14 -4 11 -8 12 -11 5 -3 -9 -7 -8 -18
2 -7 8 -19 16 -26 19 -17 5 17 45 52 61 20 9 144 80 220 126 8 5 85 51 170
101 85 50 167 100 183 111 15 11 27 16 27 12 0 -4 8 0 18 8 9 9 33 25 53 36
74 41 84 47 89 53 3 3 10 8 15 10 17 6 355 209 410 245 28 18 62 38 78 45 15
7 27 16 27 20 0 4 10 9 23 13 21 5 34 14 83 55 7 5 15 7 18 4 3 -4 6 -1 6 6 0
7 4 10 9 6 5 -3 13 0 16 5 5 8 12 6 24 -4 9 -8 33 -22 54 -31 20 -8 37 -19 37
-24 0 -6 5 -22 12 -38 13 -34 15 -40 23 -77 3 -16 10 -37 15 -46 5 -10 7 -20
3 -23 -3 -4 -1 -12 4 -19 5 -7 16 -40 23 -73 7 -33 17 -65 22 -72 5 -6 10 -22
12 -35 1 -13 5 -30 8 -38 10 -25 39 -133 52 -190 5 -19 11 -39 14 -45 4 -5 7
-14 8 -20 1 -5 7 -28 13 -50 6 -22 11 -43 11 -47 0 -4 8 -27 17 -50 8 -24 16
-52 17 -62 2 -11 9 -22 16 -24 9 -3 11 1 6 14 -4 11 -9 27 -11 37 -2 9 -6 21
-9 25 -3 5 -7 19 -10 33 -3 13 -14 56 -26 94 -12 39 -23 79 -26 90 -7 28 -9
35 -24 85 -7 25 -14 50 -16 55 -6 25 -34 123 -44 155 -6 19 -13 42 -15 50 -6
25 -33 123 -44 158 -5 18 -10 33 -10 35 0 6 -14 44 -23 64 -9 17 -6 26 16 50
15 15 33 39 41 53 13 24 18 26 84 24 39 -1 71 2 71 6 0 5 -30 7 -66 6 -60 -2
-69 0 -90 23 -13 14 -24 30 -24 34 0 11 21 49 34 63 6 6 27 30 46 54 19 24 44
53 55 65 26 28 75 86 100 119 11 15 33 40 48 56 16 17 25 30 21 30 -4 0 4 10
17 23 35 34 89 96 89 102 0 5 43 56 83 97 9 10 14 18 10 18 -5 0 4 11 20 24
15 13 27 26 27 30 0 3 8 14 18 25 9 10 26 30 37 45 22 28 78 96 110 132 11 13
31 37 45 55 14 18 30 37 35 43 6 6 27 32 47 58 19 26 38 45 42 41 3 -3 6 -2 6
4 0 6 16 31 36 55 19 23 45 55 57 70 38 48 58 72 80 98 20 22 142 170 174 210
69 85 113 142 113 146 0 9 -10 3 -32 -20z"/>
<path d="M6677 3217 c-29 -58 -107 -227 -107 -233 0 -2 -15 -36 -34 -76 -18
-40 -68 -152 -110 -248 -81 -185 -88 -200 -131 -295 -15 -33 -31 -71 -37 -85
-6 -14 -21 -46 -34 -71 -13 -26 -24 -54 -24 -63 0 -9 -4 -16 -10 -16 -5 0 -10
-5 -10 -11 0 -5 -10 -31 -22 -57 -12 -26 -21 -50 -20 -54 1 -5 -3 -8 -8 -8 -5
0 -9 -3 -8 -7 1 -5 -13 -39 -30 -76 -18 -38 -32 -70 -32 -72 0 -1 -7 -19 -15
-39 -8 -20 -15 -38 -15 -41 0 -3 -9 -21 -20 -40 -21 -38 -27 -70 -10 -60 6 4
8 10 5 15 -3 4 2 13 10 20 7 6 11 18 8 26 -3 8 0 14 6 14 6 0 11 9 11 19 0 11
4 22 9 26 5 3 12 19 16 35 4 17 11 30 16 30 5 0 9 7 9 15 0 8 24 66 54 128
127 267 145 306 152 331 3 14 10 26 15 26 5 0 9 7 9 15 0 8 16 47 35 88 19 41
35 76 35 79 0 3 14 36 32 74 17 38 32 71 33 74 1 3 8 21 17 40 9 19 37 82 63
140 26 58 60 134 76 169 46 100 100 233 96 237 -2 2 -15 -20 -30 -49z"/>
<path d="M5574 3203 c14 -60 19 -89 20 -105 0 -10 3 -18 6 -18 4 0 7 -6 7 -12
1 -22 13 -90 18 -98 2 -3 7 -22 10 -41 3 -19 13 -63 22 -99 8 -36 16 -74 18
-85 2 -21 8 -50 27 -124 6 -24 12 -55 13 -69 0 -14 6 -27 13 -30 7 -2 9 5 6
20 -3 13 -7 35 -8 49 -2 15 -7 33 -12 40 -5 8 -9 25 -10 39 -1 14 -2 25 -3 25
-1 0 -4 14 -6 30 -2 17 -7 41 -10 55 -4 14 -9 36 -12 50 -2 14 -7 32 -10 40
-4 8 -6 18 -5 22 1 3 -5 31 -13 62 -8 31 -14 60 -13 64 1 4 -3 23 -9 42 -10
31 -23 101 -26 138 0 6 -4 12 -9 12 -5 0 -6 5 -3 10 3 6 1 10 -6 10 -7 0 -9
-9 -5 -27z"/>
<path d="M6728 3163 c5 -25 6 -25 13 -8 11 29 10 35 -5 35 -9 0 -12 -8 -8 -27z"/>
<path d="M118 3158 c7 -7 8 -17 1 -30 -7 -13 -6 -18 4 -18 7 0 14 13 15 30 2
23 -2 30 -15 30 -13 0 -14 -3 -5 -12z"/>
<path d="M440 3160 c8 -5 12 -10 9 -10 -4 0 -3 -17 2 -37 5 -21 11 -54 14 -73
3 -19 10 -46 15 -60 4 -14 9 -32 9 -40 0 -8 6 -42 14 -75 16 -71 17 -74 18
-77 0 -2 3 -16 5 -33 3 -16 9 -41 14 -55 6 -14 11 -38 12 -55 1 -16 4 -34 8
-40 3 -5 7 -26 9 -45 2 -19 8 -41 13 -47 6 -7 8 -13 6 -13 -3 0 -1 -19 4 -42
5 -24 11 -59 14 -78 3 -19 9 -46 15 -60 5 -14 11 -38 13 -55 9 -60 17 -100 23
-115 3 -8 7 -26 9 -40 7 -61 49 -230 56 -230 5 0 6 12 3 28 -3 15 -8 38 -11
52 -3 14 -7 33 -10 42 -6 20 -13 53 -19 93 -6 38 -13 70 -15 70 -1 0 -4 11 -6
25 -8 55 -23 130 -27 137 -3 5 -8 24 -11 43 -3 19 -8 46 -11 60 -3 14 -7 36
-10 50 -3 14 -9 39 -14 57 -5 17 -7 34 -4 36 2 3 0 14 -5 24 -5 10 -12 34 -15
53 -7 43 -13 72 -33 159 -9 36 -18 77 -20 91 -3 14 -11 57 -20 95 -9 39 -18
81 -21 95 -3 14 -6 32 -8 40 -2 8 -4 21 -4 28 -1 6 -9 12 -18 12 -15 0 -16 -2
-3 -10z"/>
<path d="M6723 3116 c3 -7 0 -19 -6 -25 -8 -8 -8 -11 1 -11 6 0 9 -7 6 -15 -4
-8 -2 -15 4 -15 6 0 9 8 7 18 -1 9 2 23 8 30 6 8 6 12 -2 12 -7 0 -9 5 -6 10
3 6 1 10 -5 10 -7 0 -10 -6 -7 -14z"/>
<path d="M118 3093 c0 -5 -2 -21 -4 -38 -1 -16 -3 -32 -4 -35 -1 -3 -4 -27 -6
-54 -2 -28 -6 -56 -8 -63 -3 -7 -2 -13 3 -13 5 0 11 17 15 38 8 56 16 172 11
172 -3 0 -6 -3 -7 -7z"/>
<path d="M6713 3008 c-1 -45 -11 -203 -13 -203 -2 0 -8 -87 -12 -167 -2 -31
-6 -60 -10 -64 -4 -3 -3 -15 3 -25 5 -11 6 -19 2 -19 -5 0 -9 -19 -9 -42 -1
-38 -8 -95 -16 -138 -2 -8 -7 -20 -11 -27 -4 -6 -3 -14 3 -18 9 -6 14 1 11 18
0 4 3 7 7 7 5 0 8 14 7 30 -1 17 1 33 4 35 4 2 7 29 6 59 0 31 2 56 5 56 3 0
6 15 7 33 1 31 9 152 19 267 11 135 14 230 7 230 -5 0 -9 -15 -10 -32z"/>
<path d="M147 2913 c-2 -5 -3 -16 -1 -26 1 -12 -2 -17 -11 -13 -9 3 -12 0 -8
-10 7 -19 28 -12 28 9 0 8 4 19 8 23 4 4 7 11 7 16 0 10 -17 11 -23 1z"/>
<path d="M95 2869 c-4 -6 -5 -12 -2 -15 2 -3 7 2 10 11 7 17 1 20 -8 4z"/>
<path d="M115 2840 c-4 -6 -1 -10 4 -10 6 0 11 -6 11 -14 0 -9 -8 -13 -22 -10
-13 2 -17 1 -10 -2 10 -5 10 -9 0 -22 -11 -13 -10 -15 4 -9 12 4 15 2 11 -8
-3 -8 -9 -12 -14 -9 -8 4 -14 -25 -10 -48 0 -5 -5 -8 -11 -8 -10 0 -10 -2 0
-9 16 -10 16 -17 2 -34 -45 -53 -49 -60 -41 -75 5 -8 23 -23 42 -31 20 -10 63
-57 116 -126 46 -60 89 -117 96 -125 6 -9 59 -78 117 -155 58 -77 110 -147
117 -155 7 -8 41 -54 76 -101 62 -83 80 -107 103 -131 11 -12 -3 -58 -18 -58
-20 0 -5 -50 25 -84 26 -31 39 -38 75 -40 30 -2 42 1 42 11 0 7 6 13 13 13 37
0 44 77 13 125 -15 23 -14 25 67 81 45 31 89 63 97 71 8 7 62 48 120 91 209
153 406 300 435 326 17 14 33 26 36 26 12 0 52 40 46 47 -4 3 -16 -4 -27 -17
-11 -13 -20 -20 -20 -17 0 4 -15 -4 -32 -16 -51 -35 -192 -140 -198 -147 -3
-3 -27 -22 -55 -41 -27 -18 -52 -36 -55 -39 -3 -3 -93 -70 -200 -150 -107 -80
-201 -151 -208 -157 -15 -15 -21 -16 -77 -17 -43 -1 -44 1 -48 87 -1 9 -8 17
-15 17 -10 0 -12 -6 -7 -17 11 -27 17 -93 8 -93 -7 0 -50 56 -93 120 -8 12
-20 28 -25 34 -6 6 -26 33 -45 61 -19 27 -42 59 -51 70 -10 11 -45 56 -78 100
-33 44 -64 85 -68 90 -4 6 -48 64 -97 130 -50 66 -101 132 -115 147 -17 19
-24 39 -24 65 0 21 -4 47 -10 58 -14 25 -16 55 -5 55 4 0 8 5 8 11 0 5 -4 8
-10 4 -5 -3 -3 6 5 21 7 14 12 35 10 45 -2 11 0 19 4 19 15 0 19 49 5 54 -7 3
-16 1 -19 -4z"/>
<path d="M5727 2483 c3 -16 7 -35 11 -43 7 -18 9 -29 11 -52 0 -10 6 -18 11
-18 6 0 8 10 6 23 -3 12 -8 36 -11 52 -9 48 -16 65 -24 65 -5 0 -6 -12 -4 -27z"/>
<path d="M5763 2323 c7 -21 13 -45 12 -53 -1 -8 2 -19 6 -25 4 -5 8 -26 10
-45 2 -19 5 -39 8 -45 3 -5 7 -21 8 -35 2 -14 8 -44 14 -68 7 -23 12 -52 13
-64 0 -12 7 -23 15 -26 8 -3 11 0 8 5 -8 13 -19 62 -20 96 -1 15 -5 27 -9 27
-4 0 -6 8 -6 18 1 18 -3 39 -27 147 -9 39 -17 77 -19 84 -1 8 -8 17 -14 19 -8
2 -8 -7 1 -35z"/>
<path d="M6626 2260 c-8 -16 -17 -43 -21 -59 -3 -15 -16 -38 -28 -49 -47 -45
-94 -112 -80 -112 5 0 0 -5 -10 -11 -9 -6 -15 -14 -12 -20 4 -5 1 -9 -5 -9 -6
0 -8 -5 -5 -10 3 -6 -1 -13 -9 -16 -9 -3 -16 -10 -16 -15 0 -5 -8 -18 -17 -30
-94 -112 -128 -152 -143 -168 -8 -9 -33 -39 -55 -66 -22 -28 -43 -51 -47 -53
-5 -2 -8 -8 -8 -13 0 -6 -15 -27 -34 -47 -58 -63 -216 -264 -216 -274 0 -5 -4
-6 -10 -3 -5 3 -10 1 -10 -4 0 -11 -12 -27 -67 -90 -18 -20 -33 -39 -33 -43 0
-5 -8 -16 -17 -26 -10 -10 -34 -38 -53 -62 -19 -24 -41 -49 -48 -56 -9 -9 -9
-15 -1 -20 6 -3 15 0 20 7 13 23 53 72 76 96 12 13 20 23 18 23 -5 0 17 29 45
60 8 9 37 45 65 81 27 35 55 70 62 77 7 7 13 18 13 23 0 6 6 7 13 3 6 -4 9 -4
5 1 -4 4 -2 13 5 21 7 7 17 19 22 26 24 31 101 124 113 136 7 8 25 30 40 50
15 21 34 42 42 49 8 7 11 13 7 13 -4 0 2 10 15 23 13 12 46 49 73 82 28 33 53
62 58 63 4 2 5 8 1 13 -3 5 3 9 12 9 10 0 14 3 11 7 -4 3 12 29 36 57 23 28
56 71 72 96 17 24 37 51 45 60 8 9 27 30 41 47 15 18 44 40 65 50 46 21 58 64
27 92 -29 25 -40 23 -57 -9z"/>
<path d="M6425 2020 c-16 -16 -24 -30 -17 -30 6 0 17 9 25 20 8 11 17 17 22
12 5 -4 5 -2 2 5 -4 6 -1 14 5 16 7 3 8 6 2 6 -5 1 -23 -12 -39 -29z"/>
<path d="M6348 1945 c-21 -19 -35 -35 -32 -35 3 0 -9 -12 -27 -27 -91 -77
-285 -281 -276 -290 3 -3 21 12 39 33 18 21 59 63 91 94 161 153 266 260 255
260 -7 0 -30 -16 -50 -35z"/>
<path d="M5850 1921 c4 -16 5 -32 2 -36 -4 -3 0 -10 8 -15 13 -9 13 -10 0 -10
-13 -1 -12 -2 1 -10 10 -6 15 -18 12 -34 -3 -13 0 -26 5 -30 7 -4 9 6 7 26 -2
18 -4 33 -5 33 -1 0 -3 10 -6 23 -2 12 -6 32 -8 45 -3 12 -5 25 -5 30 -1 4 -5
7 -10 7 -6 0 -6 -12 -1 -29z"/>
<path d="M5876 1761 c-4 -5 -1 -11 5 -13 6 -2 12 -16 12 -31 0 -15 3 -27 7
-27 6 0 6 46 0 60 -1 3 -2 8 -1 13 1 10 -17 9 -23 -2z"/>
<path d="M5900 1670 c0 -17 17 -47 23 -40 2 3 -2 16 -10 30 -7 14 -13 18 -13
10z"/>
<path d="M5974 1639 c0 -13 3 -15 13 -7 7 6 13 12 13 13 0 2 -6 5 -13 8 -7 3
-13 -3 -13 -14z"/>
<path d="M5932 1611 c-13 -3 -22 -8 -21 -11 4 -10 -13 -50 -22 -51 -5 -1 -13
-2 -18 -3 -26 -3 -20 -16 7 -16 18 0 32 -4 32 -9 0 -14 55 -7 74 9 23 18 16
71 -10 80 -10 4 -29 4 -42 1z"/>
<path d="M850 1555 c0 -3 16 -26 36 -52 55 -73 65 -87 173 -238 55 -77 109
-151 120 -165 10 -14 44 -59 74 -100 30 -41 64 -85 76 -96 11 -12 17 -25 13
-29 -4 -4 -2 -6 3 -5 21 5 30 -1 16 -9 -10 -6 -12 -19 -7 -44 8 -43 36 -56 70
-33 17 11 26 12 35 3 6 -6 20 -12 31 -14 37 -5 45 -8 51 -16 3 -4 16 -9 27
-10 12 -1 22 -4 22 -8 0 -12 49 -16 54 -5 2 6 5 3 5 -7 1 -12 7 -17 18 -15 33
6 24 27 -14 34 -21 4 -42 10 -48 14 -5 4 -40 18 -76 30 -44 14 -77 33 -98 56
-18 19 -41 34 -50 34 -10 0 -27 12 -37 26 -10 14 -40 54 -65 88 -108 146 -127
173 -145 201 -10 17 -21 32 -24 35 -4 3 -51 66 -105 140 -54 74 -105 145 -114
157 -15 21 -41 38 -41 28z"/>
<path d="M4525 1550 c-4 -6 -11 -8 -16 -5 -5 4 -9 2 -9 -3 0 -5 34 -9 75 -9
41 0 75 3 75 7 0 4 -27 6 -60 4 -35 -1 -58 2 -54 7 3 5 3 9 0 9 -3 0 -8 -5
-11 -10z"/>
<path d="M4260 1540 c0 -5 5 -10 10 -10 6 0 10 5 10 10 0 6 -4 10 -10 10 -5 0
-10 -4 -10 -10z"/>
<path d="M4290 1541 c0 -4 38 -8 85 -8 47 0 85 2 85 6 0 4 -38 7 -85 8 -47 1
-85 -2 -85 -6z"/>
<path d="M4470 1540 c0 -5 5 -10 10 -10 6 0 10 5 10 10 0 6 -4 10 -10 10 -5 0
-10 -4 -10 -10z"/>
<path d="M4663 1533 c0 -9 4 -10 14 -2 7 6 13 12 13 14 0 1 -6 2 -13 2 -8 0
-14 -6 -14 -14z"/>
<path d="M4696 1534 c-3 -7 2 -10 15 -7 22 6 26 20 4 20 -8 0 -16 -6 -19 -13z"/>
<path d="M4740 1538 c0 -4 7 -8 15 -8 8 0 15 4 15 8 0 5 -7 9 -15 9 -8 0 -15
-4 -15 -9z"/>
<path d="M4780 1538 c0 -4 16 -7 35 -6 19 1 35 4 35 8 0 3 -16 6 -35 6 -19 -1
-35 -4 -35 -8z"/>
<path d="M4860 1538 c0 -4 16 -7 35 -6 19 1 35 4 35 7 0 4 -16 7 -35 7 -19 0
-35 -4 -35 -8z"/>
<path d="M4940 1538 c0 -4 16 -7 35 -6 19 1 35 4 35 8 0 3 -16 6 -35 6 -19 -1
-35 -4 -35 -8z"/>
<path d="M5020 1539 c0 -4 34 -7 75 -6 41 0 75 3 75 6 0 4 -34 7 -75 6 -41 0
-75 -3 -75 -6z"/>
<path d="M5185 1540 c-3 -5 -2 -10 4 -10 5 0 13 5 16 10 3 6 2 10 -4 10 -5 0
-13 -4 -16 -10z"/>
<path d="M5216 1533 c-6 -14 -5 -15 5 -6 7 7 10 15 7 18 -3 3 -9 -2 -12 -12z"/>
<path d="M5246 1541 c-3 -4 9 -8 25 -9 16 -1 29 1 29 5 0 10 -49 13 -54 4z"/>
<path d="M5310 1540 c0 -5 5 -10 10 -10 6 0 10 5 10 10 0 6 -4 10 -10 10 -5 0
-10 -4 -10 -10z"/>
<path d="M5345 1540 c-3 -5 -1 -10 4 -10 6 0 11 5 11 10 0 6 -2 10 -4 10 -3 0
-8 -4 -11 -10z"/>
<path d="M5370 1540 c0 -3 43 -6 95 -6 52 0 95 2 95 5 0 4 -43 6 -95 7 -52 0
-95 -3 -95 -6z"/>
<path d="M5570 1540 c0 -3 38 -7 86 -7 47 0 82 2 79 6 -8 8 -165 9 -165 1z"/>
<path d="M5750 1540 c0 -5 5 -10 10 -10 6 0 10 5 10 10 0 6 -4 10 -10 10 -5 0
-10 -4 -10 -10z"/>
<path d="M5800 1538 c0 -4 7 -8 15 -8 8 0 15 4 15 8 0 5 -7 9 -15 9 -8 0 -15
-4 -15 -9z"/>
<path d="M5854 1483 c-21 -14 -59 -40 -84 -57 -25 -17 -46 -33 -48 -37 -2 -4
-25 -22 -53 -39 -27 -18 -49 -37 -49 -43 0 -6 -3 -7 -6 -4 -4 4 -28 -11 -53
-32 -25 -21 -113 -88 -196 -150 -82 -61 -157 -118 -165 -125 -9 -7 -99 -75
-200 -151 -102 -76 -197 -148 -211 -159 -15 -12 -39 -30 -53 -40 -15 -11 -36
-27 -46 -35 -10 -9 -52 -42 -94 -74 -42 -32 -76 -63 -76 -68 0 -10 12 -5 40
17 8 7 62 49 120 93 58 44 136 104 173 133 38 29 76 57 85 62 9 5 41 29 70 53
30 24 70 55 91 68 20 13 52 37 71 54 19 17 53 44 75 59 22 15 42 29 45 32 3 3
21 17 40 30 19 12 40 28 45 34 6 6 35 29 65 51 30 22 64 48 75 58 11 10 32 25
48 33 15 8 27 20 27 26 0 6 3 9 6 6 3 -4 14 1 23 10 10 9 28 24 40 32 13 8 35
26 49 38 15 13 38 31 52 40 38 25 140 104 140 108 0 8 -8 4 -46 -23z"/>
<path d="M5639 968 c-13 -18 -29 -39 -36 -46 -7 -7 -37 -46 -67 -85 -72 -95
-112 -137 -129 -137 -8 0 -29 -13 -46 -29 -17 -16 -31 -28 -31 -26 0 2 -53
-15 -117 -37 -65 -22 -122 -41 -128 -43 -5 -1 -18 -5 -27 -8 -10 -4 -26 -10
-35 -13 -10 -4 -13 -8 -7 -10 6 -3 44 7 85 21 41 14 84 28 95 30 12 3 39 12
60 21 73 31 88 33 113 13 43 -35 71 -17 74 48 1 28 10 47 33 69 17 18 46 53
64 78 19 25 37 46 42 46 4 0 8 6 8 14 0 8 3 16 8 18 10 4 82 93 82 102 0 16
-21 3 -41 -26z"/>
<path d="M1699 733 c-4 -30 -4 -33 6 -34 6 0 18 -8 28 -16 11 -11 17 -12 17
-4 0 7 5 9 10 6 6 -3 10 -1 10 5 0 7 -8 9 -22 4 -22 -6 -22 -6 -5 13 17 20 17
20 -5 19 -13 -1 -26 3 -30 9 -5 6 -8 6 -9 -2z m41 -17 c0 -3 -4 -8 -10 -11 -5
-3 -10 -1 -10 4 0 6 5 11 10 11 6 0 10 -2 10 -4z"/>
<path d="M1770 722 c0 -11 22 -21 58 -28 12 -3 22 1 22 7 0 6 -9 9 -19 6 -11
-3 -29 2 -40 10 -12 8 -21 10 -21 5z"/>
<path d="M1892 688 c5 -13 38 -20 38 -8 0 4 -9 10 -21 13 -12 3 -19 1 -17 -5z"/>
<path d="M1775 671 c-3 -5 0 -13 6 -17 8 -4 9 -3 5 4 -4 7 -3 12 3 12 5 0 13
-5 16 -11 6 -8 47 -30 65 -33 3 -1 10 -5 17 -9 6 -4 15 -2 19 4 4 8 3 9 -4 5
-7 -4 -12 -2 -12 4 0 7 -7 10 -15 6 -8 -3 -15 -1 -15 4 0 6 -8 10 -19 10 -10
0 -24 7 -31 15 -14 17 -26 19 -35 6z"/>
<path d="M1940 674 c0 -2 9 -8 20 -14 11 -6 20 -7 20 -2 0 6 -9 12 -20 15 -11
3 -20 3 -20 1z"/>
<path d="M1990 661 c0 -6 3 -11 8 -12 38 -4 71 -12 93 -23 14 -7 33 -12 42
-10 9 1 17 -3 17 -9 0 -5 3 -7 7 -4 3 4 11 3 17 -2 6 -4 21 -11 34 -14 19 -4
21 -3 11 9 -6 7 -15 11 -20 8 -5 -2 -20 3 -34 12 -14 9 -25 14 -25 11 0 -4
-19 1 -42 10 -24 8 -52 16 -63 17 -11 1 -26 5 -32 9 -8 5 -13 4 -13 -2z"/>
<path d="M1922 614 c-7 -8 -8 -14 -3 -14 10 0 25 19 20 25 -2 1 -10 -3 -17
-11z"/>
<path d="M1942 595 c2 -3 13 -6 24 -8 10 -1 25 -6 32 -10 7 -5 12 -3 12 5 0 8
-14 14 -36 15 -20 1 -34 0 -32 -2z"/>
<path d="M2247 579 c7 -7 15 -10 18 -7 3 3 -2 9 -12 12 -14 6 -15 5 -6 -5z"/>
<path d="M2032 571 c-11 -7 -11 -9 2 -14 10 -4 16 -1 16 8 0 17 -1 17 -18 6z"/>
<path d="M2066 556 c5 -14 18 -20 27 -14 1 1 13 -5 27 -12 14 -8 30 -14 35
-15 6 0 20 -6 33 -13 12 -7 27 -10 32 -7 6 3 10 1 10 -4 0 -6 6 -11 13 -11 6
-1 30 -9 52 -20 49 -23 56 -24 49 -5 -3 8 -9 14 -12 13 -4 0 -9 1 -12 2 -3 1
-12 3 -20 5 -8 2 -28 9 -45 16 -16 7 -32 13 -35 13 -13 3 -78 29 -102 42 -16
9 -28 12 -28 8 0 -3 -7 -1 -15 6 -13 11 -14 10 -9 -4z"/>
<path d="M2486 533 c-6 -14 -5 -15 5 -6 7 7 10 15 7 18 -3 3 -9 -2 -12 -12z"/>
<path d="M2540 535 c-7 -9 -8 -15 -2 -15 5 0 12 7 16 15 3 8 4 15 2 15 -2 0
-9 -7 -16 -15z"/>
<path d="M2565 530 c-2 -4 8 -6 23 -5 15 1 31 -1 37 -3 15 -9 65 -9 70 -1 3 4
-10 7 -28 8 -17 1 -47 3 -65 5 -18 2 -34 0 -37 -4z"/>
<path d="M4915 515 c-104 -34 -236 -74 -272 -81 -18 -4 -33 -10 -33 -14 0 -5
-8 -7 -17 -5 -10 1 -30 -4 -44 -11 -25 -13 -27 -12 -40 17 -16 41 -76 80 -125
81 -74 2 -91 -2 -122 -30 -35 -32 -77 -116 -66 -134 4 -7 3 -8 -5 -4 -6 4 1
-16 17 -46 63 -116 180 -146 261 -66 38 37 61 88 61 134 0 29 4 34 28 39 46
10 54 12 177 48 206 61 265 81 265 89 0 11 -5 10 -85 -17z"/>
<path d="M2710 519 c0 -8 14 -10 103 -13 17 0 36 -5 40 -11 5 -6 7 -4 5 5 -3
9 -20 15 -49 17 -24 1 -56 5 -71 7 -16 2 -28 0 -28 -5z"/>
<path d="M2460 501 c0 -3 14 -12 30 -18 17 -6 30 -8 30 -4 0 3 -13 12 -30 18
-16 6 -30 8 -30 4z"/>
<path d="M2870 500 c0 -4 15 -8 33 -8 17 0 61 -5 96 -12 35 -6 86 -13 115 -15
28 -2 51 -4 51 -5 0 -1 11 -3 25 -5 102 -10 148 -16 170 -19 58 -11 140 -14
135 -6 -3 5 -13 8 -23 8 -9 0 -44 3 -77 7 -33 4 -73 9 -90 11 -16 1 -30 3 -30
4 0 1 -16 3 -35 5 -19 2 -53 6 -75 8 -22 3 -68 8 -103 12 -35 3 -73 8 -85 11
-47 10 -107 12 -107 4z"/>
<path d="M2530 472 c0 -8 224 -118 226 -111 0 2 8 -4 18 -14 10 -9 22 -15 27
-12 5 4 9 1 9 -5 0 -6 5 -8 10 -5 6 3 10 1 10 -5 0 -6 5 -8 10 -5 6 3 13 0 16
-8 3 -8 23 -20 44 -27 23 -8 37 -17 33 -24 -3 -6 -3 -8 1 -4 8 6 15 2 49 -28
7 -6 22 -10 34 -9 16 1 20 -2 13 -10 -6 -7 -2 -15 13 -25 20 -12 21 -12 8 3
-20 25 -8 20 24 -8 23 -22 29 -24 43 -13 12 10 14 10 8 0 -5 -9 10 -20 51 -38
32 -14 80 -37 106 -50 27 -13 58 -24 70 -24 22 1 22 1 -2 20 -13 11 -29 20
-37 20 -8 0 -14 5 -14 10 0 6 -5 10 -10 10 -6 0 -30 9 -52 20 -23 11 -48 20
-55 20 -7 0 -13 5 -13 10 0 6 -3 9 -7 8 -5 -1 -35 11 -68 27 -33 16 -64 29
-70 29 -5 1 -13 6 -18 13 -4 7 -15 9 -24 6 -10 -4 -14 -2 -10 5 7 11 -44 42
-70 42 -7 0 -22 9 -32 19 -10 10 -35 25 -55 32 -20 7 -36 17 -36 21 0 4 -6 8
-13 8 -7 0 -55 22 -107 48 -111 56 -130 64 -130 54z"/>
<path d="M2360 439 c0 -7 49 -24 63 -21 4 1 7 -2 7 -6 0 -8 72 -34 86 -32 4 1
11 -4 15 -12 7 -10 9 -8 9 6 0 12 -5 16 -15 12 -8 -3 -15 -1 -15 5 0 6 -4 7
-10 4 -5 -3 -10 -1 -10 6 0 7 -3 10 -6 6 -4 -3 -19 0 -34 8 -15 8 -30 11 -34
8 -3 -4 -6 -1 -6 6 0 7 -4 9 -10 6 -5 -3 -10 -2 -10 3 0 5 -7 9 -15 9 -8 0
-15 -4 -15 -8z"/>
<path d="M3510 431 c0 -6 3 -11 8 -12 4 0 15 -2 24 -4 9 -2 41 -5 70 -8 29 -3
78 -8 108 -12 30 -3 71 -7 90 -8 20 -2 41 -7 48 -11 7 -4 12 -2 12 6 0 8 -10
15 -22 15 -32 2 -132 11 -203 19 -33 3 -71 7 -85 8 -14 1 -31 6 -38 10 -7 4
-12 2 -12 -3z"/>
<path d="M3886 379 c3 -5 11 -9 17 -7 7 1 37 -1 67 -5 30 -5 58 -8 62 -8 4 0
21 -4 38 -9 21 -6 30 -5 30 3 0 8 3 8 8 2 9 -13 42 -16 42 -4 0 5 -8 9 -17 10
-22 0 -61 5 -133 14 -93 12 -120 13 -114 4z"/>
<path d="M2551 371 c3 -7 7 -11 9 -10 3 2 19 -4 35 -13 34 -18 106 -51 118
-54 4 -1 9 -3 12 -4 3 -1 10 -4 15 -5 6 -1 12 -4 15 -5 3 -1 8 -3 13 -4 4 -1
17 -7 29 -14 16 -9 24 -9 29 0 4 6 3 8 -4 4 -6 -3 -18 1 -27 10 -9 9 -19 14
-22 10 -3 -3 -13 0 -21 6 -8 7 -21 13 -29 14 -8 1 -31 11 -51 20 -20 10 -39
19 -42 19 -10 3 -63 26 -73 32 -5 3 -8 0 -6 -6z"/>
<path d="M4156 283 c-3 -4 -14 -8 -24 -9 -45 -6 -140 -31 -192 -51 -8 -3 -22
-8 -30 -10 -8 -2 -22 -5 -30 -8 -8 -2 -23 -4 -32 -4 -10 -1 -18 -9 -18 -18 0
-10 3 -14 8 -8 4 6 20 12 35 13 15 2 60 15 100 29 40 14 80 27 90 29 10 2 27
6 37 9 10 3 28 8 41 10 24 5 35 12 27 20 -2 3 -8 2 -12 -2z"/>
<path d="M2840 252 c-13 -14 -12 -15 2 -9 9 3 22 -1 29 -9 7 -8 18 -13 24 -10
7 2 17 0 23 -6 6 -6 12 -6 17 3 5 7 4 10 -3 5 -6 -3 -13 -2 -17 3 -3 6 -13 7
-22 4 -12 -5 -14 -3 -8 7 5 8 4 11 -3 6 -6 -3 -14 0 -19 8 -7 12 -10 12 -23
-2z"/>
<path d="M2945 210 c-3 -6 1 -7 9 -4 18 7 21 14 7 14 -6 0 -13 -4 -16 -10z"/>
<path d="M3785 179 c-16 -6 -41 -12 -55 -15 -28 -6 -36 -11 -28 -20 3 -3 26 0
49 7 24 7 48 13 53 13 5 1 11 7 14 14 2 6 2 12 0 11 -1 0 -16 -5 -33 -10z"/>
<path d="M3662 138 c-7 -7 -12 -9 -12 -5 0 3 -12 2 -27 -4 -16 -6 -37 -13 -47
-15 -20 -4 -110 -31 -136 -41 -8 -4 -18 -5 -22 -5 -5 1 -8 -3 -8 -8 0 -14 4
-13 110 20 52 17 112 35 133 42 20 6 37 15 37 20 0 12 -14 10 -28 -4z"/>
</g>
</svg>
